<?xml version="1.0" encoding="utf-8"?>
<!-- Uploaded to: SVG Repo, www.svgrepo.com, Generator: SVG Repo Mixer Tools -->
<svg width="800px" height="800px" viewBox="0 -11.8 450.534 450.534" xmlns="http://www.w3.org/2000/svg"><defs><style>.a{fill:#ffffff;}.b{fill:#d9d9d9;}.c{fill:#7a7473;}.d{fill:#211715;}.e{fill:#a0a0a0;}</style></defs><path class="a" d="M207.758,231.255a122.734,122.734,0,0,1-8.886-8.489s-2.206-2.6-4.3-5.052c2.83-3.9,8.137-11.22,9.51-13.113l5.391,2.695,1.7-.661a53.435,53.435,0,0,1,8.487-2.879c-.009,2.768-.019,5.383-.027,6.663l-.016,2.307c2.109,1.194,3.638,2.128,4.958,2.93a4.812,4.812,0,0,1,1.886,4.455,20.419,20.419,0,0,1-5.743,11.956c-.507.538-1.733,1.95-2.3,2.43-1.316,1.111-3.807.737-5.481.156a15.424,15.424,0,0,1-4.444-2.8C208.264,231.67,208.017,231.47,207.758,231.255Z"/><path class="b" d="M385.975,353.735q0-18.666-.066-37.332-.065-20.631-.159-41.263-.093-21.438-.193-42.877-.092-20.69-.166-41.381-.065-18.783-.083-37.568,0-2.139,0-4.278l-2,2c17.655.024,35.311-.192,52.966-.289q6.165-.033,12.33-.044c2.573,0,2.578-4,0-4-17.727,0-35.454.212-53.18.3-4.039.02-8.077.039-12.116.033a2.029,2.029,0,0,0-2,2q0,18.438.067,36.875.064,20.514.159,41.028.094,21.432.193,42.864.093,20.793.167,41.587.063,19,.081,38,0,2.174,0,4.347c0,2.574,4,2.578,4,0Z"/><path class="b" d="M396.938,341.778q0-35.465-.225-70.928-.185-35.9-.359-71.8-.073-19.459-.084-38.921l-2,2c14.988-.079,29.976-.21,44.965-.282q4.683-.021,9.366-.028c2.574,0,2.578-4,0-4-14.028,0-28.056.144-42.083.236q-6.124.041-12.248.074a2.03,2.03,0,0,0-2,2q0,35.144.228,70.287.186,35.991.358,71.983.073,19.692.082,39.383c0,2.573,4,2.578,4,0Z"/><path class="b" d="M384.477,355.735c17.023-.119,34.045-.27,51.068-.362q5.178-.029,10.356-.038c2.574,0,2.578-4,0-4-16.229,0-32.458.183-48.686.306q-6.369.048-12.738.094c-2.573.018-2.579,4.019,0,4Z"/><path class="b" d="M394.921,344.185c13.983-.107,27.966-.279,41.949-.372q4.515-.03,9.031-.038c2.574,0,2.578-4,0-4-13.192,0-26.384.187-39.575.311q-5.7.054-11.405.1c-2.573.02-2.579,4.02,0,4Z"/><path class="b" d="M394.6,257.225c14.878-.07,29.756-.2,44.634-.271q4.683-.022,9.366-.029c2.574,0,2.578-4,0-4-13.9,0-27.8.143-41.7.231q-6.15.039-12.3.069c-2.573.013-2.579,4.013,0,4Z"/><path class="b" d="M394.551,246.115c14.891-.07,29.782-.2,44.674-.271q4.688-.022,9.376-.029c2.574,0,2.578-4,0-4-13.914,0-27.829.143-41.743.231q-6.153.039-12.307.069c-2.573.013-2.579,4.013,0,4Z"/><path class="b" d="M407.828,233.889c-.01-13.334.127-26.667.117-40l-2,2c7.294,0,14.588-.055,21.882-.056,2.574,0,2.578-4,0-4-7.294,0-14.588.054-21.882.056a2.03,2.03,0,0,0-2,2c.01,13.333-.127,26.666-.117,40,0,2.573,4,2.578,4,0Z"/><path class="b" d="M413.157,333.488c3.79-11.734,7.7-23.428,11.494-35.163.793-2.455-3.068-3.507-3.857-1.063C417,309,413.09,320.69,409.3,332.425c-.793,2.455,3.068,3.507,3.858,1.063Z"/><path class="b" d="M416.1,203.667c0,6.537-.089,13.074-.09,19.611,0,2.574,4,2.578,4,0,0-6.537.088-13.074.09-19.611,0-2.574-4-2.579-4,0Z"/><path class="b" d="M435.272,333.111c-.009-13.333.127-26.667.118-40,0-2.574-4-2.578-4,0,.009,13.333-.127,26.667-.118,40,0,2.574,4,2.578,4,0Z"/><path class="b" d="M432.2,234.074c0-15.334-.22-30.666-.222-46l-2,2h18.593c2.573,0,2.578-4,0-4H429.975a2.029,2.029,0,0,0-2,2c0,15.334.22,30.666.222,46,0,2.574,4,2.578,4,0Z"/><path class="b" d="M6.546,342.978c-.171,0-.342,0-.513,0a2,2,0,0,0,0,4c5.144.073,10.295-.009,15.439-.013l37.585-.036q23.531-.021,47.061-.045l43.864-.046q14-.015,28-.035l1.753,0c2.574,0,2.578-4,0-4q-12.659.024-25.318.033-21.317.024-42.634.045l-47.345.046-39.385.037-12.748.012c-1.976,0-4.035-.163-6.006,0a2.29,2.29,0,0,1-.262,0v4c.171,0,.342,0,.513,0,2.574,0,2.578-4,0-4Z"/><path class="b" d="M337.787,346.915q11.195-.026,22.389-.053c2.573,0,2.578-4,0-4q-11.194.022-22.389.053c-2.574.006-2.579,4.006,0,4Z"/><path class="b" d="M97.235,116.241H89.443a2.029,2.029,0,0,0-2,2c0,7.206.011,14.413-.008,21.62a2.028,2.028,0,0,0,2,2c2.652.005,5.3.083,7.956.087,2.574,0,2.577-4,0-4-2.652,0-5.3-.082-7.956-.087l2,2c.019-7.207.008-14.414.008-21.62l-2,2h7.792c2.574,0,2.578-4,0-4Z"/><path class="b" d="M99.708,188.574q-.03-8.927-.041-17.853-.027-14-.049-28-.025-15.567-.047-31.135-.019-13.379-.036-26.759-.009-7.662-.014-15.323,0-.382,0-.764c0-2.574-4-2.578-4,0q-.006,6.723.01,13.446.015,12.871.034,25.743.021,15.5.046,31,.023,14.379.049,28.757.018,9.723.042,19.445,0,.72,0,1.441c.008,2.573,4.008,2.578,4,0Z"/><path class="b" d="M36.94,190.647q28.791-.033,57.581-.06l12.169-.01c2.574,0,2.578-4,0-4q-26.293.017-52.588.051l-17.162.019c-2.573,0-2.578,4,0,4Z"/><path class="b" d="M37.83,70.687l58.222.042,10.638.008c2.574,0,2.578-4,0-4L55.439,66.7,37.83,66.687c-2.574,0-2.578,4,0,4Z"/><path class="b" d="M10.468,132.581c-.985-.639-.743-2.542-.736-3.52a19.092,19.092,0,0,1,.3-4.594,2.984,2.984,0,0,1,.451-1.117c.121-.195-.021,0-.047.035a2.551,2.551,0,0,1,.234-.254c.064-.061.29-.232-.02-.008a2.287,2.287,0,0,1,.278-.176c.293-.152-.229.039.21-.094.2-.06.391-.107.591-.149.381-.079.1-.017.014-.007.126-.015.255-.027.382-.032.269-.01.537-.021.807-.022,3.018,0,6.033.229,9.055.214,2.071-.011,4.142-.045,6.213-.069.235,0,.906-.115,1.084.007-.01-.006-.128-.044-.139-.078a9.5,9.5,0,0,1-.018,1.609c.052,3.262.093,6.525.1,9.787l2-2c-3.324.018-6.659.351-9.977.523-1.839.1-3.68.189-5.522.214-1.575.021-3.881.382-5.26-.269a2.057,2.057,0,0,0-2.736.718,2.016,2.016,0,0,0,.717,2.736c2.043.965,4.33.84,6.535.82,1.886-.017,3.769-.093,5.653-.187,3.522-.177,7.062-.536,10.59-.555a2.03,2.03,0,0,0,2-2c0-3.513-.047-7.026-.109-10.538-.034-2-.517-3.922-2.651-4.589A9.888,9.888,0,0,0,27.4,118.8c-1.316.016-2.631.035-3.947.048-2.309.022-4.62.034-6.928-.052-1.4-.052-2.8-.2-4.2-.139-2.968.137-5.223,1.573-6.082,4.512a23.188,23.188,0,0,0-.51,6.775c.038,2.415.577,4.7,2.716,6.093C10.615,137.441,12.622,133.98,10.468,132.581Z"/><path class="b" d="M10.468,132.581c-.985-.639-.743-2.542-.736-3.52a19.092,19.092,0,0,1,.3-4.594,2.984,2.984,0,0,1,.451-1.117c.121-.195-.021,0-.047.035a2.551,2.551,0,0,1,.234-.254c.064-.061.29-.232-.02-.008a2.287,2.287,0,0,1,.278-.176c.293-.152-.229.039.21-.094.2-.06.391-.107.591-.149.381-.079.1-.017.014-.007.126-.015.255-.027.382-.032.269-.01.537-.021.807-.022,3.018,0,6.033.229,9.055.214,2.071-.011,4.142-.045,6.213-.069.235,0,.906-.115,1.084.007-.01-.006-.128-.044-.139-.078a9.5,9.5,0,0,1-.018,1.609c.052,3.262.093,6.525.1,9.787l2-2c-3.324.018-6.659.351-9.977.523-1.839.1-3.68.189-5.522.214-1.575.021-3.881.382-5.26-.269a2.057,2.057,0,0,0-2.736.718,2.016,2.016,0,0,0,.717,2.736c2.043.965,4.33.84,6.535.82,1.886-.017,3.769-.093,5.653-.187,3.522-.177,7.062-.536,10.59-.555a2.03,2.03,0,0,0,2-2c0-3.513-.047-7.026-.109-10.538-.034-2-.517-3.922-2.651-4.589A9.888,9.888,0,0,0,27.4,118.8c-1.316.016-2.631.035-3.947.048-2.309.022-4.62.034-6.928-.052-1.4-.052-2.8-.2-4.2-.139-2.968.137-5.223,1.573-6.082,4.512a23.188,23.188,0,0,0-.51,6.775c.038,2.415.577,4.7,2.716,6.093C10.615,137.441,12.622,133.98,10.468,132.581Z"/><path class="b" d="M28.485,134.484a96.22,96.22,0,0,0,1.092,11.746q.829,6.471,1.854,12.916c.945,5.914,2.319,11.768,2.971,17.726a140.324,140.324,0,0,1,.476,20.3c-.057,1.536-.088,4.359-1.216,5.132a5.579,5.579,0,0,1-.531.172c-.168.036-.689.092-1.046.131-1.049.113-2.1.206-3.151.29-5.089.4-10.206.6-15.311.546-2.221-.024-4.449-.088-6.659-.321-.68-.072-1.544-.013-2.025-.721a3.078,3.078,0,0,1-.224-1.745q0-1.452.021-2.9c.091-6.392.5-12.77,1.022-19.14.274-3.357.573-6.713.839-10.071a91.09,91.09,0,0,1,1.208-10.613c1.49-7.532,4.086-14.789,5.7-22.292.538-2.511-3.317-3.583-3.858-1.064C8.115,141.7,5.7,148.6,4.18,155.729c-1.384,6.5-1.6,13.179-2.164,19.784S.952,188.752.783,195.392q-.067,2.63-.068,5.261a6.232,6.232,0,0,0,1.51,4.693C4,207.167,6.782,207.152,9.156,207.3a137.421,137.421,0,0,0,15.825-.137c2.371-.132,4.742-.3,7.1-.554,2.193-.236,4.167-.65,5.389-2.688,1.251-2.088,1.346-4.767,1.416-7.129.109-3.667.079-7.355.015-11.023a136.019,136.019,0,0,0-2.7-22.4c-.905-4.9-1.645-9.833-2.318-14.772a109.273,109.273,0,0,1-1.4-14.113c-.011-2.573-4.011-2.579-4,0Z"/><path class="b" d="M18.844,135.473V151.89c0,2.574,4,2.578,4,0V135.473c0-2.574-4-2.578-4,0Z"/><path class="b" d="M13.327,119.9a71.959,71.959,0,0,0-1.411-10.117c-.7-3.835-1.488-7.653-2.239-11.478-.871-4.436-1.69-8.9-2.367-13.366C6.441,79.2,6.1,73.367,5.42,67.6c-.357-3.016-.7-6.034-.99-9.059a49.463,49.463,0,0,1-.4-6.889l-2,2a67.989,67.989,0,0,0,10.11-.9c1.514-.245,2.9-.958,4.4-1.232,1.224-.223,2.3.607,3.455.958a16.066,16.066,0,0,0,4.356.391q2.342.051,4.683.062c2.848.012,5.7,0,8.544-.181l-2-2c0,6.7.252,13.39.253,20.087,0,3.168-.065,6.337-.239,9.5q-.139,2.511-.367,5.016c-.073.792-.185,1.583-.239,2.376-.029.419.078-.421-.042.27-1.31,7.532-3.446,14.928-5.064,22.4-.771,3.561-1.757,7.32-1.784,10.985-.019,2.575,3.98,2.577,4,0a19.3,19.3,0,0,1,.4-3.617c.308-1.834.679-3.658,1.066-5.477.9-4.242,1.913-8.461,2.91-12.682.788-3.337,1.64-6.675,2.247-10.051a99.965,99.965,0,0,0,1.1-16.593c.072-7.405-.24-14.808-.243-22.213a2.019,2.019,0,0,0-2-2c-2.843.177-5.7.193-8.544.181q-2.244-.009-4.487-.057a11.8,11.8,0,0,1-4.238-.519,7.55,7.55,0,0,0-3.748-.859,35.3,35.3,0,0,0-4.64,1.225,36.034,36.034,0,0,1-4.847.6c-1.678.173-3.358.322-5.046.336a2.04,2.04,0,0,0-2,2c-.212,4.554.61,9.279,1.133,13.79.674,5.818,1.14,11.668,1.861,17.477,1.075,8.664,3,17.212,4.631,25.782a75.974,75.974,0,0,1,1.668,11.2c.1,2.566,4.1,2.578,4,0Z"/><path class="b" d="M37.67,60.973c8.255,0,16.511-.062,24.766-.1q17.165-.081,34.328-.162c3.339-.015,6.677-.036,10.016-.037,2.574,0,2.578-4,0-4-7.927,0-15.854.064-23.781.1q-17.3.082-34.6.162c-3.576.015-7.151.037-10.727.037-2.574,0-2.578,4,0,4Z"/><path class="b" d="M106.779,196.364c-8.27,0-16.541.069-24.811.109q-17.531.085-35.061.166c-3.227.014-6.455.043-9.682.029-2.574-.011-2.578,3.989,0,4,7.949.035,15.9-.055,23.849-.093q17.665-.085,35.332-.171c3.458-.016,6.916-.039,10.373-.04,2.574,0,2.579-4,0-4Z"/><path class="a" d="M174.6,4.374a4.417,4.417,0,0,0-1.311,3.241c-.14,1.791,2.026,3.2,3.356,3.9,2.081,1.095,6.443,2.243,8.609,3.055,3.959,1.485,4.888,1.776,9.99,5.761-1.87-.337-3.477-.341-5.192-.6-1.309-.2-2.877.107-3.275,1.346a2.738,2.738,0,0,0,1,2.7,7.214,7.214,0,0,0,2.716,1.3,43.785,43.785,0,0,0,11.749,2.177,6.54,6.54,0,0,1,4.523,1.871c1.085,1.064,2.111,2.011,3.443,3.208l1.018,1.143c2.843-2.111,6.189-4.569,9.141-6.565l-1.438-2.041c-1.8-2.557-5.182-7.252-7.361-9.177-2.925-3.123-7.678-7.385-9.846-8.42a51.815,51.815,0,0,0-13.5-4.638,26.728,26.728,0,0,0-7.933-.492C178.71,2.362,176.15,2.838,174.6,4.374Z"/><path class="a" d="M267.257,103.086a479.656,479.656,0,0,1,18.749,53.347c3.063,11.158,8.55,34.54,11.488,53.182-24.509,9.424-63.508,19.607-78.031,22.659l-.281.059.164-4.718c.281-8.1.234-26.709.375-33.268.033-1.543-.221-4.016-1.126-5.316a74.085,74.085,0,0,0-4.5-6.088c-5.137-6.217-12.556-15.755-18-21.929-2.62,4.858-7.651,12.922-10.27,17.779a5.911,5.911,0,0,0-.989,3.133,5.463,5.463,0,0,0,1.821,3.256c6.478,6.537,11.8,12.132,17.674,17.588a1,1,0,0,1,.088,1.375L192.776,220.2a1,1,0,0,1-1.4.131c-7.633-6.19-16.285-12.62-25.25-23.462-1.84-2.225-4.394-6.111-4.948-8.945-.539-2.764.265-5.585.99-8.307,1.7-6.377,6.921-20.525,9.365-25.155,5.333-11.037,10-17.445,17.111-23.913a17.115,17.115,0,0,1,4.841-2.979c5,1.056,13.4,2.46,18.361,1.225,11.139-2.773,14.594-7.235,18.651-18.159,3.637-9.467,1.9-20.147-.876-29.9a104.136,104.136,0,0,0-12.4-27.718c-3.824-5.955-8.017-11.829-10.215-15.248a.988.988,0,0,1,.248-1.337c3.744-2.758,10.656-8.031,15.479-11.064a.987.987,0,0,1,1.275.187c12.522,14.4,30.687,46.656,43.24,77.535Z"/><path class="a" d="M212.63,61.975a3.453,3.453,0,0,0-.247.422S195.7,35.456,171.109,52.049c-25.2,17.005-5.035,42.8-5.035,42.8a4.178,4.178,0,0,0-3,.777,3.789,3.789,0,0,0-1.818,3.361c.1,2.213,2.077,5.092,3.917,6.462a11.569,11.569,0,0,0,6.07,2.623,4.552,4.552,0,0,0,3.579-1.313c5.318,3.872,8.062,4.916,14.357,6.289a21.3,21.3,0,0,0,8.978-.617c.25.559.488,1.143.738,1.762.79,2.02,1.4,5.2.63,7.2a12.369,12.369,0,0,1-5.68,6.29s12.824,15.621,31.046,3.621,7.382-26.3,7.382-26.3a72.88,72.88,0,0,1-7.411.558,6.449,6.449,0,0,1-5.5-2.407,38.171,38.171,0,0,1-3.506-4.813c4.368-6.187,4.5-14.8,1.512-22a4.4,4.4,0,0,0,2.844-2.341,10.982,10.982,0,0,0,1.373-6.263c-.063-2.3-1.283-5.567-3.038-6.921a3.788,3.788,0,0,0-3.8-.44A4.308,4.308,0,0,0,212.63,61.975Z"/><path class="c" d="M198.774,42.464A27.4,27.4,0,0,0,190.8,39.98l-6.732-.04A28.561,28.561,0,0,0,167.5,44.881a30.814,30.814,0,0,0-10.183,41.9,33.624,33.624,0,0,0,7,8.231,3.831,3.831,0,0,1,1.757-.155l.129.02c.642-3.878,1.288-7.756,1.288-7.756.763-4.577,2.587-11.9,4.746-15.664.254-.441.913-.482,1.47.055a4.939,4.939,0,0,1,1.066,1.457.938.938,0,0,0,1.668.133c1.5-2.755,3.973-7.961,6.113-11.05,3.111-4.518,8.55-3.261,10.925-2.916a29.547,29.547,0,0,1,9.059,2.753c2.772,1.4,6.887,2.387,9.845.512a3.973,3.973,0,0,1,1.481-1.587c-1.5-4.5-1.836-5.313-3.96-8.327A29.95,29.95,0,0,0,198.774,42.464Z"/><path class="a" d="M267.257,103.086a479.656,479.656,0,0,1,18.749,53.347c3.063,11.158,8.55,34.54,11.488,53.182-24.509,9.424-63.508,19.607-78.031,22.659l-.281.059.164-4.718c.281-8.1.234-26.709.375-33.268.033-1.543-.221-4.016-1.126-5.316a74.085,74.085,0,0,0-4.5-6.088c-5.137-6.217-12.556-15.755-18-21.929-2.62,4.858-7.651,12.922-10.27,17.779a5.911,5.911,0,0,0-.989,3.133,5.463,5.463,0,0,0,1.821,3.256c6.478,6.537,11.8,12.132,17.674,17.588a1,1,0,0,1,.088,1.375L192.776,220.2a1,1,0,0,1-1.4.131c-7.633-6.19-16.285-12.62-25.25-23.462-1.84-2.225-4.394-6.111-4.948-8.945-.539-2.764.265-5.585.99-8.307,1.7-6.377,6.921-20.525,9.365-25.155,5.333-11.037,10-17.445,17.111-23.913a17.115,17.115,0,0,1,4.841-2.979c5,1.056,13.4,2.46,18.361,1.225,11.139-2.773,14.594-7.235,18.651-18.159,3.637-9.467,1.9-20.147-.876-29.9a104.136,104.136,0,0,0-12.4-27.718c-3.824-5.955-8.017-11.829-10.215-15.248a.988.988,0,0,1,.248-1.337c3.744-2.758,10.656-8.031,15.479-11.064a.987.987,0,0,1,1.275.187c12.522,14.4,30.687,46.656,43.24,77.535Z"/><path class="d" d="M232.43,111.165c3.852-10.267,1.871-21.61-1.125-31.825a109.265,109.265,0,0,0-13.53-29.158c-1.682-2.568-3.41-5.105-5.141-7.64q-1.108-1.624-2.213-3.252a19.818,19.818,0,0,1-1.8-2.814l.274,1.009q-.751.813-.182.347l.346-.255.854-.635,1.612-1.2q2.039-1.515,4.086-3.016t4.139-2.96q.993-.691,2-1.367.44-.3.882-.586l.571-.37q.558-.246.012-.185l-.883-.515a25.971,25.971,0,0,1,3.824,4.583c1.388,1.819,2.725,3.677,4.028,5.558,3.054,4.407,5.922,8.942,8.676,13.542,6.384,10.663,12.18,21.684,17.513,32.908q4.758,10.015,8.962,20.283a2.063,2.063,0,0,0,2.46,1.4,2.013,2.013,0,0,0,1.4-2.46,414.076,414.076,0,0,0-17.814-38.048,284.473,284.473,0,0,0-18.791-31.142q-2.113-2.983-4.372-5.859c-1.343-1.707-3.1-4.84-5.669-4.2a12.406,12.406,0,0,0-3.419,2.05c-1.272.865-2.529,1.752-3.778,2.649-2.331,1.675-4.632,3.388-6.934,5.1a19.591,19.591,0,0,0-2.777,2.129c-1.226,1.327-.742,2.944.133,4.276,1.679,2.558,3.431,5.067,5.149,7.6a135.938,135.938,0,0,1,10.867,18.28,102.31,102.31,0,0,1,7.461,22c1.617,7.52,2.075,15.4-.669,22.714a2.017,2.017,0,0,0,1.4,2.461,2.044,2.044,0,0,0,2.46-1.4Z"/><path class="d" d="M265.53,104.1c5.547,12.758,10.19,25.977,14.446,39.214,4.249,13.215,7.561,26.676,10.506,40.237,1.916,8.822,3.672,17.684,5.084,26.6a2.014,2.014,0,0,0,2.46,1.4,2.05,2.05,0,0,0,1.4-2.461c-2.42-15.286-5.723-30.461-9.479-45.472A408.079,408.079,0,0,0,277,122.423c-2.5-6.844-5.112-13.661-8.019-20.347a2.013,2.013,0,0,0-2.736-.717,2.051,2.051,0,0,0-.718,2.736Z"/><path class="a" d="M329.541,411.47c-4.9-4.876-9.824-8.712-14.677-13.242-1.648-1.7-2.406-2.082-3.012-3.529a15.108,15.108,0,0,1-.756-2.783c-.344-2.365-.5-3.96-.68-5.265-5.181.884-11.733,1.649-17.17,2.052a49.919,49.919,0,0,1,.8,5.018c0,3.03-.37,7.881-.43,9.479-.079,2.078-.48,3.7.725,5.491a18.088,18.088,0,0,0,4.475,4.146c4.985,3.683,10.022,7.4,15.688,9.909,5.237,2.322,17.593,4.766,18.346-4.149C333.08,415.913,331.45,413.37,329.541,411.47Z"/><path class="a" d="M229.919,393.721a52.046,52.046,0,0,1,.965-5.8c-5.844-.456-12.683-1.236-17.22-2-.241,1.445-.382,3.171-.792,6a15.032,15.032,0,0,1-.757,2.783c-.605,1.447-1.364,1.831-3.012,3.529-4.853,4.53-9.778,8.366-14.677,13.242-1.909,1.9-3.538,4.443-3.312,7.127.753,8.915,13.109,6.471,18.346,4.149,5.666-2.512,10.7-6.226,15.688-9.909a18.11,18.11,0,0,0,4.476-4.146c1.2-1.789.8-3.413.725-5.491C230.288,401.6,229.921,396.751,229.919,393.721Z"/><path class="d" d="M290.794,386.689c.307,1.53.662,3.054.915,4.595a24.822,24.822,0,0,1,.273,5.153c-.071,1.727-.178,3.452-.279,5.178a32.836,32.836,0,0,0-.175,4.792c.4,4.5,4.808,7.084,8.109,9.5a84.987,84.987,0,0,0,11.815,7.591c4.9,2.472,10.756,4.181,16.263,3.089a8.674,8.674,0,0,0,6.129-4.254c1.884-3.627.9-7.649-1.534-10.743a46.154,46.154,0,0,0-5.558-5.5c-1.959-1.767-3.962-3.484-5.95-5.219q-2.958-2.582-5.784-5.294a6.738,6.738,0,0,1-1.994-4.193,2.015,2.015,0,0,0-2.46-1.4,2.047,2.047,0,0,0-1.4,2.46,10.7,10.7,0,0,0,1.489,4.236,23.929,23.929,0,0,0,3.661,3.76c3.265,2.992,6.678,5.817,9.957,8.792,2.547,2.31,6.954,5.432,6.579,9.361a4.2,4.2,0,0,1-3.066,3.845,13.991,13.991,0,0,1-6.516.206,28.325,28.325,0,0,1-3.413-.8c-.507-.152-1.011-.318-1.508-.5a11.082,11.082,0,0,1-1.247-.511,67.713,67.713,0,0,1-11.055-6.644c-1.747-1.244-3.5-2.5-5.2-3.807-1.263-.973-3.05-2.29-3.319-3.98a23.022,23.022,0,0,1,.171-4.787c.108-1.846.224-3.692.293-5.54a44.377,44.377,0,0,0-1.345-10.45c-.506-2.522-4.362-1.454-3.857,1.064Z"/><path class="d" d="M228.831,394.475a74.287,74.287,0,0,0-.412,9.922,4.921,4.921,0,0,1-1.516,4.441,37.373,37.373,0,0,1-4.408,3.485,94.3,94.3,0,0,1-10.6,6.989,27.524,27.524,0,0,1-7.2,2.919,18.953,18.953,0,0,1-6.833.594c-1.807-.221-3.492-.9-4.286-2.507-1.448-2.927.667-5.872,2.788-7.952,3.141-3.079,6.493-5.925,9.8-8.818,1.783-1.558,3.532-3.143,5.237-4.786a9.866,9.866,0,0,0,2.786-3.927c1.109-3.168.879-6.613,1.71-9.845.641-2.494-3.216-3.559-3.857-1.063-.805,3.13-.623,6.452-1.609,9.54-.437,1.367-1.588,2.209-2.587,3.186-1.721,1.683-3.566,3.248-5.382,4.828-3.476,3.024-7.28,5.966-10.289,9.472-2.578,3-3.969,6.9-2.354,10.716,2.306,5.445,8.919,5.689,13.937,4.836,7.051-1.2,13.218-5.286,18.917-9.391,2.017-1.453,4.084-2.885,5.99-4.483a9.467,9.467,0,0,0,3.719-5.782c.247-1.862-.086-3.773,0-5.652.1-2.243.286-4.483.447-6.722.185-2.569-3.816-2.557-4,0Z"/><path class="e" d="M267.939,219.5c-17.522,5.267-35.312,9.843-45.513,12.138l-.058.632c-1.029,11.318-3.906,53.653-4.772,63.6,0,0-6.808,66.294-7.8,88.43a.986.986,0,0,0,.754,1.008c4.869,1.173,17.861,2.61,25.591,2.945a.993.993,0,0,0,1.02-.826c4.8-27.29,9.529-55.616,12.453-78.561,1.954-15.334,7.884-48.6,8.741-52.518a12.246,12.246,0,0,1,1.293-3.256,17.652,17.652,0,0,1,.908-1.606c.333,1.23.532,1.973.532,1.973,1.777,6.667,10.247,34.355,14.23,57.778,3.446,20.78,10.7,65.685,12.32,76.879a.987.987,0,0,0,1.016.848,178.987,178.987,0,0,0,25.181-2.957.989.989,0,0,0,.787-1.007c-.955-25.93-6.542-68.153-8.328-91.748-2.508-33.135-5.58-57.875-9.5-83.374C288.315,213.111,278.173,216.424,267.939,219.5Z"/><path class="d" d="M294.857,210.409q5.589,36.206,8.634,72.718c.9,10.748,1.766,21.485,2.877,32.213,1.184,11.429,2.437,22.85,3.562,34.284.62,6.308,1.2,12.619,1.7,18.938q.342,4.368.614,8.741.12,1.971.219,3.944.048.95.089,1.9a5.887,5.887,0,0,1,.015,1.857l.514-.883c.1-.124.33-.065-.068.018-.251.053-.5.1-.755.151q-.719.141-1.438.269-1.473.264-2.953.491c-2.239.347-4.484.643-6.734.9s-4.487.484-6.736.666a32.535,32.535,0,0,1-6.031.316l1.01.273c.416.182.143.588.163.127a2.332,2.332,0,0,0-.058-.4c-.035-.238-.071-.476-.106-.714q-.134-.9-.269-1.792-.336-2.209-.679-4.417-.9-5.766-1.813-11.528-2.254-14.211-4.56-28.413-2.146-13.249-4.324-26.493c-1.883-11.419-4.44-22.7-7.336-33.9-2.315-8.958-4.988-17.815-7.369-26.755-.662-2.485-4.521-1.431-3.857,1.064,2.381,8.939,5.054,17.8,7.369,26.755,3.095,11.973,5.712,24.019,7.718,36.222q4.976,30.253,9.758,60.539c.518,3.308,1.035,6.617,1.527,9.929a5.836,5.836,0,0,0,.464,1.975c.883,1.636,2.609,1.572,4.212,1.491,2.926-.15,5.847-.4,8.761-.71,3.266-.343,6.526-.755,9.772-1.255,1.265-.194,2.527-.4,3.786-.638,1.559-.29,3.283-.506,3.889-2.23a10.658,10.658,0,0,0,.086-3.864q-.092-1.948-.206-3.9-.248-4.243-.576-8.483c-1.831-24.03-4.976-47.935-7.053-71.941-1.189-13.741-2.222-27.485-3.7-41.2q-2.068-19.156-4.884-38.22-.669-4.561-1.374-9.118a2.015,2.015,0,0,0-2.46-1.4,2.051,2.051,0,0,0-1.4,2.461Z"/><path class="d" d="M220.368,232.271c-.833,9.2-1.442,18.43-2.109,27.646-.756,10.433-1.483,20.869-2.287,31.3-.315,4.085-.734,8.154-1.142,12.23q-1.356,13.515-2.638,27.037c-1.038,10.954-2.042,21.912-2.94,32.879-.384,4.69-.75,9.382-1.059,14.078-.125,1.885-.24,3.771-.335,5.658-.072,1.439-.031,2.96,1.372,3.8a10.628,10.628,0,0,0,3.528.888,194.02,194.02,0,0,0,19.548,2.244c1.479.1,3.356.5,4.792.068,2.222-.676,2.207-3.331,2.537-5.218q1.166-6.659,2.307-13.32c2.933-17.122,5.755-34.269,8.171-51.473,1.716-12.222,3.368-24.318,5.426-36.562,1.479-8.8,2.817-17.685,4.7-26.415a16.1,16.1,0,0,1,5.03-8.1c1.9-1.742-.932-4.565-2.828-2.829a20.014,20.014,0,0,0-6.213,10.631c-.445,2.251-.851,4.51-1.26,6.768q-2.117,11.712-4.048,23.457c-3.191,19.373-5.533,38.869-8.643,58.257q-1.661,10.352-3.421,20.687-.909,5.355-1.837,10.707-.453,2.616-.909,5.231-.228,1.306-.457,2.611c-.055.316-.111.632-.166.948s-.111.631-.166.947q-.155.807-.039.277l.883-.514a8.414,8.414,0,0,1-2.846-.087q-1.74-.114-3.477-.259-3.6-.3-7.2-.7c-2.176-.244-4.35-.512-6.515-.837-.946-.142-1.89-.293-2.831-.464-.361-.066-.721-.134-1.081-.207-.178-.036-.361-.095-.542-.114-.446-.046-.322-.307-.1.119l.273,1.01a34.037,34.037,0,0,1,.285-6.234q.237-3.712.521-7.423.663-8.8,1.446-17.59,1.6-18.336,3.417-36.653c.668-6.842,1.367-13.681,2.046-20.522.877-8.816,1.354-17.685,1.992-26.521.841-11.651,1.632-23.307,2.6-34.948q.1-1.24.214-2.481a2.015,2.015,0,0,0-2-2,2.043,2.043,0,0,0-2,2Z"/><path class="d" d="M195.33,129.967a66.921,66.921,0,0,0,11.265,1.3,27.677,27.677,0,0,0,9.694-1.7,22.219,22.219,0,0,0,11.969-9.284,50.841,50.841,0,0,0,4.172-9.117c.9-2.415-2.964-3.458-3.857-1.064-1.631,4.371-3.494,8.965-7.069,12.123a22.623,22.623,0,0,1-13.723,5.042,55.687,55.687,0,0,1-11.388-1.156c-2.516-.467-3.595,3.387-1.063,3.857Z"/><path class="d" d="M194.678,162.429c5.869,6.673,11.289,13.729,16.913,20.606,1.282,1.568,2.567,3.124,3.736,4.78,1.022,1.449,2.027,2.714,2.291,4.515a55.236,55.236,0,0,1,.061,8.045c-.015,3.348-.021,6.7-.042,10.044-.017,2.575,3.983,2.577,4,0,.019-3.049.025-6.1.038-9.146.011-2.668.18-5.386.022-8.051a11.174,11.174,0,0,0-1.9-5.954c-1.184-1.718-2.4-3.4-3.714-5.027-2.844-3.527-5.711-7.035-8.554-10.562-3.283-4.073-6.571-8.149-10.026-12.079-1.7-1.937-4.523.9-2.829,2.829Z"/><path class="d" d="M222.5,233.665c19.758-4.415,39.364-9.92,58.61-16.187,5.623-1.831,11.217-3.758,16.74-5.873a2.058,2.058,0,0,0,1.4-2.46,2.015,2.015,0,0,0-2.46-1.4c-20.242,7.751-41.29,13.606-62.286,18.921-4.342,1.1-8.693,2.163-13.064,3.139-2.511.562-1.448,4.419,1.063,3.857Z"/><path class="d" d="M194.366,160.005c-3.07,5.668-6.565,11.1-9.7,16.73a11.04,11.04,0,0,0-1.839,4.778,7.011,7.011,0,0,0,2.277,4.945c2.851,3.01,5.816,5.924,8.732,8.871q2.28,2.3,4.592,4.575a52.753,52.753,0,0,1,4.675,4.523l-.514-.882c-.208-.547.276-.466-.019-.25a2.233,2.233,0,0,0-.329.455l-1.292,1.781-4.01,5.529-4.048,5.581-1.338,1.846c-.119.163-.249.323-.358.493-.124.193-.283.187-.077.01l.883-.515c.448-.188.7.487.248,0a5.336,5.336,0,0,0-.543-.438q-.48-.387-.96-.771-1.044-.839-2.088-1.676c-1.491-1.2-2.977-2.4-4.445-3.626-3.166-2.64-6.246-5.384-9.17-8.291a75.07,75.07,0,0,1-8.662-9.755,23.375,23.375,0,0,1-2.8-4.926,10.582,10.582,0,0,1-.128-6.329,139.435,139.435,0,0,1,6.195-18.78,109.9,109.9,0,0,1,8.675-17.814,61.743,61.743,0,0,1,7.1-9.515c1.347-1.471,2.765-2.875,4.231-4.226a17.4,17.4,0,0,1,5.742-3.386,2.057,2.057,0,0,0,1.4-2.46,2.015,2.015,0,0,0-2.46-1.4,23.883,23.883,0,0,0-5.437,2.719,33.512,33.512,0,0,0-4.008,3.542,65.919,65.919,0,0,0-6.675,7.72A89.583,89.583,0,0,0,168.3,156.68c-2.524,5.821-4.724,11.806-6.681,17.84a52.9,52.9,0,0,0-2.482,9.695c-.51,4.133,1.108,7.723,3.363,11.09a71.657,71.657,0,0,0,8.331,9.791c2.8,2.877,5.748,5.6,8.8,8.209,2.716,2.323,5.509,4.553,8.3,6.79,1.376,1.1,2.905,2.885,4.864,2.356a3.6,3.6,0,0,0,1.928-1.536c2.275-3.1,4.518-6.229,6.776-9.344l3.563-4.912c.893-1.231,1.948-2.363,1.45-4.037a5.649,5.649,0,0,0-1.855-2.291q-1.167-1.1-2.317-2.212-2.238-2.167-4.432-4.379c-3.12-3.134-6.2-6.305-9.312-9.449a6.112,6.112,0,0,1-1.644-2.05,3.092,3.092,0,0,1,.606-2.439c.748-1.4,1.545-2.773,2.342-4.144,1.845-3.173,3.742-6.316,5.587-9.49.8-1.371,1.586-2.749,2.341-4.144,1.227-2.264-2.226-4.286-3.453-2.019Z"/><path class="d" d="M220.658,23.866a81.131,81.131,0,0,0-11.327-13.183,32.521,32.521,0,0,0-6.426-5.045,52.483,52.483,0,0,0-10.57-4.125A33.088,33.088,0,0,0,180.742.1a13.481,13.481,0,0,0-6.608,2.087c-2.228,1.611-3.634,4.74-2.426,7.4,1.2,2.637,4.248,3.943,6.81,4.86,2.8,1,5.674,1.786,8.438,2.905a31.037,31.037,0,0,1,6.877,4.395l1.946-3.342c-1.9-.319-3.816-.456-5.724-.67a5.1,5.1,0,0,0-4.4,1.388,4.126,4.126,0,0,0-.273,4.875,7.056,7.056,0,0,0,4.041,2.846,47.224,47.224,0,0,0,10.653,2.306c1.66.153,3.357-.065,4.782.976,1.409,1.03,2.638,2.463,3.937,3.632,1.909,1.718,4.747-1.1,2.829-2.828-2.141-1.927-4.113-4.4-6.947-5.293a18.407,18.407,0,0,0-4.164-.45,33.155,33.155,0,0,1-4.484-.7c-1.37-.3-2.727-.656-4.073-1.049a8.862,8.862,0,0,1-3.121-1.458c-.018-.014-.2-.345-.172-.221.013.057-.247.171-.057.04a2.312,2.312,0,0,1,1.343-.075c1.584.167,3.194.275,4.765.539a2.083,2.083,0,0,0,2.259-.919,2,2,0,0,0-.313-2.424,41.112,41.112,0,0,0-6.348-4.408,40.366,40.366,0,0,0-5.574-2.235,48.279,48.279,0,0,1-7.082-2.486c-.747-.389-1.961-.978-2.312-1.791a2.256,2.256,0,0,1,.537-2.066c1.079-1.263,3.18-1.638,4.745-1.824a27.88,27.88,0,0,1,9.758,1.035,53.268,53.268,0,0,1,9.9,3.665,23.39,23.39,0,0,1,5.366,3.938A76.094,76.094,0,0,1,217.2,25.885c1.472,2.087,4.942.091,3.454-2.019Z"/><path class="d" d="M172.388,107.435a45.64,45.64,0,0,0,7,4.565,33.592,33.592,0,0,0,6.965,2.454c4.794,1.177,10.52,1.354,14.953-1.2,2.23-1.284.218-4.741-2.019-3.454-3.753,2.16-8.606,1.641-12.569.618-4.677-1.207-8.472-3.555-12.309-6.44a2.012,2.012,0,0,0-2.736.718,2.048,2.048,0,0,0,.717,2.736Z"/><path class="d" d="M215.33,76.653c2.916,6.973,3.129,15.724-2.041,21.738-1.67,1.942,1.147,4.784,2.829,2.828,6.079-7.071,6.575-17.245,3.069-25.63a2.066,2.066,0,0,0-2.46-1.4,2.014,2.014,0,0,0-1.4,2.461Z"/><path class="d" d="M166.074,92.853a6.475,6.475,0,0,0-6.117,3.265,6.147,6.147,0,0,0-.2,5.246,14.374,14.374,0,0,0,8.589,8.134,7.544,7.544,0,0,0,7.7-1.132,2,2,0,1,0-2.828-2.828q-.27.242-.091.075c-.116.077-.236.147-.359.212q-.328.159-.094.049c-.129.046-.26.087-.394.122-.065.017-.613.108-.264.071a5.555,5.555,0,0,1-.774.009,8.609,8.609,0,0,1-2.471-.706,15,15,0,0,1-2.114-1.3c-.16-.114-.321-.228-.476-.349.344.267-.232-.216-.288-.267-.337-.314-.641-.657-.946-1-.148-.185-.171-.211-.07-.076-.084-.111-.165-.222-.245-.335-.119-.169-.234-.342-.345-.517-.146-.232-.285-.469-.414-.711-.033-.062-.358-.742-.224-.427a7.938,7.938,0,0,1-.381-1.25q-.061-.356,0,.017c-.007-.086-.012-.173-.013-.259,0-.1.011-.21.006-.311.019-.211.009-.153-.031.176q.023-.13.054-.258c.037-.131.288-.633.055-.222.085-.15.164-.3.259-.444-.193.292.27-.284.342-.35a2.257,2.257,0,0,1,2.139-.637,2,2,0,0,0,2-2,2.061,2.061,0,0,0-2-2Z"/><path class="d" d="M214.11,63.406a2.3,2.3,0,0,1,1.459-1.186,3.766,3.766,0,0,0,.524-.122c.018,0,.7.007.349-.032a3.557,3.557,0,0,1,.549.138c-.392-.109.006,0,.111.063s.228.14.338.217c-.41-.286.043.061.127.145a2.99,2.99,0,0,1,.607.769,8.4,8.4,0,0,1,1.062,2.4,10.843,10.843,0,0,1,.3,1.333c.023.144.024.145,0,0,.011.1.02.206.026.309.009.2.018.393.023.589a12.015,12.015,0,0,1-.15,2.415,8.049,8.049,0,0,1-1.115,2.8,2.206,2.206,0,0,1-1.421,1.152c-2.477.687-1.425,4.547,1.063,3.857,2.949-.818,4.7-3.78,5.305-6.624a14.19,14.19,0,0,0-.392-7.574c-.823-2.347-2.216-4.751-4.661-5.658a6.461,6.461,0,0,0-7.561,2.98,2,2,0,1,0,3.454,2.019Z"/><path class="d" d="M196.484,113.576a18.239,18.239,0,0,1,1.233,3.82,7.112,7.112,0,0,1-.125,3.469c-.056.177-.075.173,0,0-.062.137-.125.273-.192.408q-.187.38-.4.746a8.536,8.536,0,0,1-.877,1.265,11.368,11.368,0,0,1-3.291,2.675c-2.25,1.251-.235,4.708,2.019,3.454a14.464,14.464,0,0,0,6.6-7.485c1.25-3.369-.156-7.273-1.511-10.372a2.015,2.015,0,0,0-2.737-.717,2.05,2.05,0,0,0-.717,2.736Z"/><path class="d" d="M214.663,100.216c1.841,2.8,3.974,6.1,7.4,7.018a15.5,15.5,0,0,0,4.9.262c1.771-.1,3.54-.273,5.3-.485a2.062,2.062,0,0,0,2-2,2.012,2.012,0,0,0-2-2c-1.552.187-3.109.339-4.669.445a17.744,17.744,0,0,1-4.046.018,8.292,8.292,0,0,1-.918-.249c-.114-.037-.265-.118-.07-.025-.144-.068-.284-.143-.422-.223-.108-.063-.213-.131-.318-.2s-.327-.263-.116-.081a8.134,8.134,0,0,1-.616-.587,28.576,28.576,0,0,1-2.977-3.912,2.046,2.046,0,0,0-2.737-.717,2.02,2.02,0,0,0-.717,2.736Z"/><path class="d" d="M184.281,63.057c2.645-3.665,8.165-2.271,11.773-1.4a25.662,25.662,0,0,1,4.662,1.56,28.322,28.322,0,0,0,3.937,1.638,11.05,11.05,0,0,0,8.739-.733c2.214-1.311.2-4.77-2.019-3.454-2.348,1.389-5.354.682-7.675-.438a34.405,34.405,0,0,0-9.858-3.054,21.43,21.43,0,0,0-5.977-.359,9.9,9.9,0,0,0-7.036,4.22,2.014,2.014,0,0,0,.717,2.736,2.045,2.045,0,0,0,2.737-.718Z"/><path class="d" d="M169.42,87.649a75.9,75.9,0,0,1,1.8-7.952c.38-1.342.8-2.674,1.279-3.984.2-.543.407-1.083.643-1.612.129-.289.265-.577.408-.859l.139-.27q.386-.59-.3.071h-1.063q-.135-.37.262.185a2.531,2.531,0,0,1,.309.464,5.277,5.277,0,0,0,.619.925,3,3,0,0,0,2.333.916c1.894-.1,2.575-1.889,3.323-3.336a86.41,86.41,0,0,1,5.108-9.14c1.455-2.131-2.01-4.134-3.454-2.018a59.16,59.16,0,0,0-3.389,5.824,40.035,40.035,0,0,1-2.883,5.438l.717-.718c.367-.263,1.4.955,1.08.09a2.69,2.69,0,0,0-.377-.573,5.459,5.459,0,0,0-1.341-1.383,2.967,2.967,0,0,0-3.142-.235c-1.552.895-2.274,3.591-2.855,5.168a67.144,67.144,0,0,0-3.074,11.936,2.059,2.059,0,0,0,1.4,2.46,2.016,2.016,0,0,0,2.46-1.4Z"/><path class="d" d="M184.064,37.94a33.794,33.794,0,0,0-27.207,14.332,33.02,33.02,0,0,0-4.924,26.7A34.49,34.49,0,0,0,162.069,95.68c1.884,1.75,4.719-1.072,2.829-2.829-7.107-6.6-11.147-16.121-9.641-25.866a29.345,29.345,0,0,1,13.251-20.377,28.244,28.244,0,0,1,15.556-4.668c2.573-.006,2.578-4.006,0-4Z"/><path class="d" d="M215.391,59.078a27.427,27.427,0,0,0-3.263-6.892A38.846,38.846,0,0,0,205.8,44.83a28.79,28.79,0,0,0-13.96-6.694,2.057,2.057,0,0,0-2.46,1.4,2.018,2.018,0,0,0,1.4,2.461,24.938,24.938,0,0,1,12.195,5.665,34.29,34.29,0,0,1,5.613,6.411,23.744,23.744,0,0,1,2.953,6.071c.824,2.424,4.689,1.384,3.857-1.063Z"/><path class="d" d="M197.458,224.18c2.369,2.546,4.892,4.976,7.491,7.286,3.083,2.739,6.382,5.519,10.69,5.736a6.149,6.149,0,0,0,5.041-2.13,45.4,45.4,0,0,0,3.83-4.472,21.451,21.451,0,0,0,2.877-5.616,14.318,14.318,0,0,0,1.007-6.623,7.113,7.113,0,0,0-3.745-5q-3.042-1.842-6.159-3.552c-2.258-1.239-4.279,2.214-2.019,3.454q2.45,1.344,4.853,2.767c1.039.618,2.293,1.088,2.836,2.127.783,1.5.058,3.537-.4,5.05a17.651,17.651,0,0,1-2.16,4.585,30.592,30.592,0,0,1-3.094,3.743c-.983,1.079-1.494,1.8-3.045,1.656-3.2-.287-5.78-2.836-8.055-4.884-2.462-2.216-4.863-4.528-7.12-6.953-1.758-1.889-4.581.945-2.828,2.828Z"/><path class="d" d="M212.187,208.362c.1-.046.706-.278.171-.076.131-.05.261-.109.39-.162q.456-.187.915-.366.883-.344,1.777-.657,1.812-.633,3.666-1.134a2,2,0,1,0-1.064-3.858,57.982,57.982,0,0,0-7.874,2.8,2,2,0,0,0-.919,1.2,2.042,2.042,0,0,0,.2,1.541,2.021,2.021,0,0,0,1.2.919,2.341,2.341,0,0,0,1.541-.2Z"/><path class="d" d="M196.293,98.76a10.39,10.39,0,0,0,4.681-2,9.063,9.063,0,0,0,3.621-4.517,2,2,0,0,0-3.857-1.063c-.029.1-.064.192-.1.288-.087.246.246-.541.122-.287-.025.051-.048.1-.073.155a6.125,6.125,0,0,1-.475.774c-.191.274.317-.386.107-.137-.069.082-.136.164-.207.244-.145.164-.3.321-.454.473-.178.172-.364.337-.555.5l-.143.117q-.247.195.1-.076c-.033.081-.262.191-.328.238a11.487,11.487,0,0,1-1.325.808c-.177.091-.36.167-.537.255.655-.322.016-.016-.164.044a8.2,8.2,0,0,1-1.479.326,1.994,1.994,0,0,0-1.195.92,2,2,0,0,0,.717,2.736,2.365,2.365,0,0,0,1.541.2Z"/><path class="d" d="M191.132,86.034c.176.645.368,1.288.583,1.921.048.139.1.277.15.415a4.349,4.349,0,0,0,.406.92,2.96,2.96,0,0,0,.439.547,2.452,2.452,0,0,0,.479.364l.048.024a3.008,3.008,0,0,0,.512.213,3.254,3.254,0,0,0,1.526-.023,3.485,3.485,0,0,0,.71-.28,1.367,1.367,0,0,0,.195-.115c.245-.173.465-.37.7-.556l-.405.313.019-.015a1.522,1.522,0,0,0,.562-.515,1.8,1.8,0,0,0,.393-1.478,1.486,1.486,0,0,0-.237-.743,2.022,2.022,0,0,0-1.2-.92l-.532-.071a1.991,1.991,0,0,0-1.01.273c-.23.177-.445.357-.671.535l.405-.312a1.353,1.353,0,0,1-.274.164l.478-.2a1.425,1.425,0,0,1-.307.084l.532-.071a1.7,1.7,0,0,1-.285.016l.532.071a.545.545,0,0,1-.106-.025l.478.2a.778.778,0,0,1-.094-.052l.405.312a.791.791,0,0,1-.132-.133l.313.405a1.55,1.55,0,0,1-.157-.285l.2.478a21.6,21.6,0,0,1-.8-2.525,2.065,2.065,0,0,0-.919-1.2,2,2,0,0,0-2.736.717,2.09,2.09,0,0,0-.2,1.541Z"/><path class="d" d="M177.258,87.873c.464,1.379,2.555,3.815,4.854,2.5,2.817-2.047.712-5.3-1.3-6.091C179.164,83.633,176.51,84.775,177.258,87.873Z"/><path class="d" d="M199.91,71.614c1.159.88,2.8,3.642.816,5.4-2.841,2.013-5.247-1.02-5.355-3.181C195.283,72.063,197.214,69.914,199.91,71.614Z"/></svg>